<svg width="180" height="110" viewBox="0 0 180 110" fill="none" xmlns="http://www.w3.org/2000/svg">
<rect width="180" height="110" rx="12" fill="#EF8964"/>
<path d="M28.3011 81.8636H45.0568V88H52.1136V81.8636H56.4432V75.9489H52.1136V53.0909H42.875L28.3011 76.0511V81.8636ZM45.1932 75.9489H35.733V75.6761L44.9205 61.1364H45.1932V75.9489ZM63.6648 83.2273H57.6648L57.5795 85.1364C57.375 89.7727 56.0455 94.5284 55.5511 96.5227H60.2557C61.0739 94.4602 63.017 89.6193 63.4773 85.1023L63.6648 83.2273ZM77.2102 52.6136C69.4034 52.5795 64.1364 57.6932 64.1705 64.7159C64.1875 71.2273 68.7045 75.9489 74.892 75.9489C78.7273 75.9489 82.1364 74.0909 83.6875 71.0227H83.9261C83.9091 77.9432 81.5057 82.1534 76.9545 82.1534C74.2784 82.1534 72.3523 80.6875 71.7898 78.1477H64.5114C65.1932 84.0284 69.9659 88.4773 76.9545 88.4773C85.5966 88.4773 91.1705 81.4886 91.1534 69.642C91.1364 56.9943 84.3864 52.6477 77.2102 52.6136ZM77.2614 58.4091C80.6534 58.4091 83.1591 61.1705 83.1932 64.4943C83.2102 67.8352 80.5682 70.5966 77.1932 70.5966C73.7841 70.5966 71.3466 67.9375 71.3295 64.5114C71.2955 61.1023 73.8352 58.4091 77.2614 58.4091ZM104.017 88.4773C111.79 88.4773 117.074 83.4148 117.057 76.358C117.074 69.6761 112.403 64.8693 106.114 64.8693C103.045 64.8693 100.403 66.1477 99.1761 67.8693H98.9716L99.875 59.125H115.131V53.0909H93.7898L92.1364 71.5L98.6989 72.6761C99.7727 71.2273 101.852 70.3239 103.915 70.3239C107.426 70.3409 109.949 72.8807 109.949 76.5455C109.949 80.1761 107.477 82.6818 104.017 82.6818C101.085 82.6818 98.7159 80.8409 98.5455 78.1307H91.3864C91.5227 84.1648 96.7898 88.4773 104.017 88.4773Z" fill="#FAFAF9"/>
<path d="M129.057 88H131.114V85.0682L131.864 84.267L134.534 88H136.994L133.415 83.0398L136.795 79.2727H134.392L131.256 82.7784H131.114V76.3636H129.057V88ZM138.666 88H140.723V82.6932C140.723 81.6193 141.439 80.892 142.325 80.892C143.195 80.892 143.791 81.4773 143.791 82.375V88H145.808V82.5568C145.808 81.5739 146.393 80.892 147.388 80.892C148.217 80.892 148.876 81.3807 148.876 82.4602V88H150.939V82.142C150.939 80.1932 149.814 79.1591 148.212 79.1591C146.945 79.1591 145.979 79.7841 145.592 80.7557H145.501C145.166 79.767 144.32 79.1591 143.143 79.1591C141.973 79.1591 141.098 79.7614 140.734 80.7557H140.632V79.2727H138.666V88Z" fill="#EFEDE8" fill-opacity="0.65"/>
<circle cx="37" cy="26" r="12" fill="#EFA082"/>
<g clip-path="url(#clip0_4_3000)">
<path d="M43.8234 22.7254C43.6138 22.475 43.2403 22.4421 42.9899 22.6509L41.349 24.0294L40.5943 22.1597C40.5675 22.0895 40.5267 22.0306 40.4799 21.9786C40.3257 21.6355 40.058 21.3409 39.6889 21.1702C39.5286 21.0975 39.3631 21.0585 39.1977 21.0394C39.1613 21.0203 39.1283 20.9952 39.0868 20.9822L36.199 20.1773C36.037 20.1331 35.8741 20.1617 35.7407 20.2397C35.5821 20.2934 35.4461 20.4087 35.3811 20.5759L34.2938 23.3718C34.1759 23.6759 34.3267 24.019 34.6317 24.1386C34.9349 24.2564 35.2789 24.1048 35.3976 23.7998L36.316 21.4388L37.6312 21.8044C37.5991 21.8564 37.5645 21.9049 37.5385 21.9604L35.8524 25.6149C35.8282 25.6686 35.8152 25.7232 35.7979 25.7787L33.7488 29.214L30.3196 30.3611C29.9314 30.6514 29.8491 31.1981 30.1359 31.5862C30.4244 31.9752 30.9728 32.0575 31.3601 31.7708L34.8691 30.5621C34.9765 30.4841 35.0545 30.3819 35.1134 30.2719C35.1576 30.2251 35.2078 30.1878 35.2416 30.1298L36.4633 28.0816L38.6319 29.9296L36.3116 32.5445C35.9919 32.9049 36.024 33.4603 36.3862 33.7791C36.7474 34.1005 37.3011 34.0667 37.6225 33.7046L40.5181 30.4426C40.6082 30.342 40.6619 30.2259 40.6983 30.1047C40.7199 30.0388 40.7199 29.9704 40.7251 29.9019C40.7251 29.8673 40.7381 29.8361 40.7355 29.804C40.7277 29.5649 40.6307 29.3327 40.4349 29.1672L38.4395 27.4656C38.5834 27.3287 38.7055 27.1658 38.7939 26.9743L40.0866 24.1749L40.5007 25.2779C40.5181 25.3758 40.551 25.472 40.6203 25.5525C40.6827 25.627 40.7624 25.6764 40.8473 25.7111C40.856 25.7154 40.8664 25.7163 40.8768 25.7189C40.9305 25.7379 40.9851 25.7561 41.0414 25.7587C41.1081 25.7648 41.1757 25.7561 41.2441 25.7371C41.2459 25.7362 41.2467 25.7362 41.2467 25.7362C41.2649 25.7319 41.2831 25.7353 41.3013 25.7275C41.3975 25.6912 41.4711 25.6296 41.5344 25.5577L43.8893 23.5589C44.1397 23.3484 44.034 22.9758 43.8234 22.7254Z" fill="white"/>
<path d="M40.8447 21.301C41.7563 21.301 42.4952 20.5621 42.4952 19.6505C42.4952 18.739 41.7563 18 40.8447 18C39.9332 18 39.1942 18.739 39.1942 19.6505C39.1942 20.5621 39.9332 21.301 40.8447 21.301Z" fill="white"/>
</g>
<defs>
<clipPath id="clip0_4_3000">
<rect width="16" height="16" fill="white" transform="translate(29 18)"/>
</clipPath>
</defs>
</svg>
